<?xml version="1.0" encoding="UTF-8"?>
<svg id="Layer_1" xmlns="http://www.w3.org/2000/svg" version="1.1" viewBox="0 0 550 585">
  <!-- Generator: Adobe Illustrator 30.2.1, SVG Export Plug-In . SVG Version: 2.1.1 Build 1)  -->
  <rect y="0" width="550" height="585" fill="#fbe731"/>
  <g>
    <polygon points="419.139 102.602 251.538 135.191 215.291 67.686 419.139 102.602" fill="#030700"/>
    <polygon points="333.343 136.522 461.371 133.196 216.621 521.604 362.939 185.738 283.129 181.415 333.343 136.522" fill="#030700"/>
    <polygon points="482.321 207.685 461.371 339.372 246.882 521.604 482.321 207.685" fill="#030700"/>
    <polygon points="112.868 233.624 148.118 233.624 148.118 236.616 122.18 265.88 112.868 256.901 112.868 233.624" fill="#030700"/>
    <polygon points="218.284 228.303 292.441 228.303 259.186 256.236 237.571 251.581 199.662 274.194 218.284 228.303" fill="#030700"/>
    <polygon points="124.507 456.094 181.372 456.094 159.757 491.675 124.507 456.094" fill="#030700"/>
    <polygon points="83.605 306.118 148.118 306.118 124.507 335.381 124.507 364.645 203.985 415.856 231.918 388.255 216.621 436.474 211.966 436.474 123.177 396.569 97.904 416.521 91.586 390.915 107.215 366.307 107.215 339.704 83.605 327.4 83.605 306.118" fill="#030700"/>
  </g>
</svg>