<?xml version="1.0" encoding="UTF-8"?>
<svg id="Layer_1" xmlns="http://www.w3.org/2000/svg" version="1.1" viewBox="0 0 256 256">
  <!-- Generator: Adobe Illustrator 30.2.1, SVG Export Plug-In . SVG Version: 2.1.1 Build 1)  -->
  <path d="M93.19,43.589s-18.024,0-34.045,16.422c0,0-50.066,60.479-55.673,112.948,0,0-6.008,32.443,24.833,39.252,0,0,28.838,4.406,41.254-28.037,0,0,18.424-62.883,24.833-73.697,0,0,3.605-6.809,8.411-6.408,0,0,6.008,0,8.411,8.812,0,0,8.812,35.246,22.429,39.252,0,0,23.231,6.408,28.838-21.628,0,0,2.403-18.825,18.424-17.223,0,0,10.414,0,12.416,26.034,0,0,2.003,26.034,22.429,24.032,0,0,29.238-2.003,16.422-43.257,0,0-14.419-60.88-36.848-62.883,0,0-11.215-1.202-17.623,14.018,0,0-16.422,34.846-30.841,32.443,0,0-17.223,0-22.429-26.034-.4-1.602-6.408-34.045-31.241-34.045Z" fill="#45b1e8"/>
  <circle cx="246.592" cy="154.534" r="6.408" fill="#45b1e8"/>
</svg>