<?xml version="1.0" encoding="UTF-8"?>
<svg id="Layer_1" xmlns="http://www.w3.org/2000/svg" version="1.1" viewBox="0 0 600 155">
  <!-- Generator: Adobe Illustrator 30.2.1, SVG Export Plug-In . SVG Version: 2.1.1 Build 1)  -->
  <text transform="translate(145 128.543)" fill="#f4f6f9" font-family="Orbitron-Medium, Orbitron" font-size="125" font-weight="500"><tspan x="0" y="0">Briven</tspan></text>
  <g>
    <path d="M135.652,14.624c-.066-.018-.129-.027-.199-.038l-6.967-1.277-49.642-9.08-9.443-1.729,14.934,44.291c2.838-.786,5.704-1.098,8.524-.999,4.055.157,8.003,1.184,11.575,2.951,5.321,2.641,9.824,6.931,12.645,12.447.634,1.225,1.18,2.514,1.632,3.855.458,1.359.803,2.726,1.045,4.098,1.809,10.182-2.178,20.477-9.961,26.878-2.183,1.787-4.654,3.273-7.388,4.366l14.949,44.337,6.468-7.094,34.005-37.283,4.722-5.173c.074-.08.147-.161.211-.237.896-1.087,1.223-2.595.742-4.021l-24.794-73.536c-.486-1.44-1.679-2.446-3.061-2.755l.005-.002h0ZM154.763,91.259l-34.005,37.283-8.113-24.063c12.185-8.232,18.454-23.36,15.176-38.05l3.12-1.052c2.185-.737,3.375-3.129,2.637-5.32s-3.129-3.375-5.32-2.637l-3.116,1.05c-6.278-13.698-20.441-21.953-35.135-21.132l-8.096-24.012,49.638,9.081,23.215,68.851h0Z" fill="#ee4546"/>
    <path d="M46.492,68.286c1.773-3.569,4.292-6.778,7.425-9.357,2.183-1.787,4.654-3.273,7.388-4.366l-14.936-44.297-6.468,7.094L5.896,54.642l-4.772,5.235c-.048.051-.093.097-.135.151-.913,1.082-1.254,2.605-.768,4.045l24.798,73.547c.481,1.427,1.652,2.425,3.025,2.751.103.021.21.04.312.061l6.891,1.258,49.638,9.081,9.443,1.729-14.949-44.337c-2.838.786-5.704,1.098-8.524.999-10.07-.381-19.481-6.159-24.202-15.359-.64-1.243-1.193-2.539-1.65-3.894-.452-1.341-.799-2.698-1.035-4.056-1.091-6.099-.109-12.238,2.527-17.562v-.004h-.002ZM32.781,89.619c-1.093.368-1.935,1.151-2.414,2.117-.479.966-.591,2.11-.222,3.203.737,2.185,3.129,3.375,5.32,2.637l3.12-1.052c6.291,13.675,20.435,21.92,35.117,21.093l8.113,24.063-49.638-9.081L8.962,63.747,42.97,26.458l8.098,24.017c-12.193,8.24-18.464,23.389-15.166,38.092l-3.12,1.052h0Z" fill="#ee4546"/>
    <circle cx="65.679" cy="73.02" r="5.904" fill="#378aff"/>
    <circle cx="66.304" cy="71.487" r="2.296" fill="#fffafc"/>
    <circle cx="92.032" cy="64.135" r="5.904" fill="#378aff"/>
    <circle cx="92.656" cy="62.602" r="2.296" fill="#fffafc"/>
    <path d="M104.653,74.558c.458,1.359-.272,2.832-1.631,3.29-.032.011-.059.02-.092.026-2.93,7.088-8.498,12.767-15.935,15.275-7.437,2.508-15.31,1.365-21.937-2.51-1.307.345-2.673-.381-3.112-1.682-.056-.167-.099-.339-.115-.504-.13-1.042.38-2.064,1.287-2.581.143-.083.292-.149.459-.205,1.359-.458,2.832.272,3.29,1.631.114.338.158.692.13,1.027,6.131,3.299,12.838,4.251,19.092,2.142,6.335-2.136,11.147-7.057,14.023-13.518-.164-.217-.294-.454-.385-.725-.458-1.359.272-2.832,1.631-3.29.081-.027.159-.049.244-.067,1.015-.241,2.062.165,2.665.972.164.217.294.454.385.725v-.004s0,0,0,0h0Z" fill="#378aff"/>
  </g>
</svg>