<?xml version="1.0" encoding="UTF-8"?>
<svg id="Layer_1" xmlns="http://www.w3.org/2000/svg" version="1.1" viewBox="0 0 32 32">
  <!-- Generator: Adobe Illustrator 30.2.1, SVG Export Plug-In . SVG Version: 2.1.1 Build 1)  -->
  <path d="M31.149,6.962c-.012-.008-.024-.014-.038-.021l-1.321-.732L20.381.993l-1.79-.993v9.965c.627.035,1.227.167,1.79.379.809.308,1.536.784,2.137,1.385.895.896,1.513,2.069,1.707,3.376.045.291.067.588.067.89,0,.306-.023.605-.068.899-.328,2.18-1.835,3.988-3.843,4.751-.563.212-1.163.344-1.79.379v9.975l1.79-.993,9.409-5.215,1.306-.723c.02-.011.041-.022.059-.034.255-.158.424-.441.424-.762V7.727c0-.324-.173-.609-.431-.765h.001,0ZM29.79,23.745l-9.409,5.215v-5.414c3.022-.833,5.319-3.462,5.657-6.653h.702c.492,0,.895-.402.895-.895s-.402-.895-.895-.895h-.701c-.335-3.195-2.634-5.827-5.658-6.662V3.039l9.409,5.215v15.49h0Z" fill="#ee4546"/>
  <path d="M9.482,11.729c.601-.6,1.329-1.077,2.137-1.385.563-.212,1.163-.344,1.79-.379V0l-1.79.993L2.211,6.208l-1.321.732c-.013.007-.025.013-.038.021-.258.156-.431.441-.431.765v16.547c0,.321.169.602.424.762.019.011.04.022.059.034l1.306.723,9.409,5.215,1.79.993v-9.975c-.627-.035-1.227-.167-1.79-.379-2.008-.763-3.516-2.571-3.843-4.751-.045-.295-.068-.594-.068-.899,0-.302.022-.599.067-.89.195-1.306.812-2.48,1.707-3.376h0s0-.001,0-.001ZM5.259,15.105c-.246,0-.469.101-.632.263s-.263.386-.263.632c0,.492.402.895.895.895h.702c.339,3.191,2.635,5.82,5.657,6.653v5.414l-9.409-5.215v-15.49L11.619,3.04v5.403c-3.024.834-5.323,3.467-5.658,6.662h-.702,0Z" fill="#ee4546"/>
  <circle cx="13.036" cy="13.993" r="1.259" fill="#378aff"/>
  <circle cx="13.266" cy="13.725" r=".49" fill="#fffafc"/>
  <circle cx="18.964" cy="13.993" r="1.259" fill="#378aff"/>
  <circle cx="19.195" cy="13.725" r=".49" fill="#fffafc"/>
  <path d="M20.804,16.958c0,.306-.248.554-.554.554-.007,0-.013,0-.02-.001-1.075,1.232-2.586,2-4.26,2s-3.186-.767-4.261-2.001c-.287-.019-.514-.259-.514-.552,0-.038.003-.075.011-.11.045-.219.217-.391.436-.434.035-.007.069-.01.107-.01.306,0,.554.248.554.554,0,.076-.015.15-.044.216,1.014,1.084,2.304,1.733,3.711,1.733,1.425,0,2.733-.666,3.754-1.776-.018-.055-.028-.112-.028-.173,0-.306.248-.554.554-.554.018,0,.036.001.054.003.221.02.405.174.472.378.018.055.028.112.028.173h0s0-.001,0-.001h0Z" fill="#378aff"/>
</svg>