<?xml version="1.0" encoding="UTF-8"?>
<svg id="Layer_1" xmlns="http://www.w3.org/2000/svg" version="1.1" viewBox="0 0 350 350">
  <!-- Generator: Adobe Illustrator 30.2.1, SVG Export Plug-In . SVG Version: 2.1.1 Build 1)  -->
  <rect y="0" width="350" height="350" fill="#181a24"/>
  <g>
    <path d="M293.349,104.389c-.095-.063-.19-.111-.294-.167l-10.317-5.722-73.516-40.746-13.984-7.754v77.849c4.897.27,9.587,1.302,13.984,2.96,6.317,2.405,12,6.127,16.698,10.817,6.992,7,11.817,16.167,13.333,26.373.349,2.27.524,4.595.524,6.952,0,2.389-.183,4.73-.532,7.024-2.563,17.032-14.333,31.159-30.024,37.119-4.397,1.659-9.087,2.69-13.984,2.96v77.929l13.984-7.754,73.508-40.746,10.206-5.651c.159-.087.317-.175.46-.262,1.992-1.238,3.31-3.444,3.31-5.952V110.365c0-2.532-1.349-4.754-3.365-5.976h.009ZM282.73,235.508l-73.508,40.746v-42.294c23.611-6.508,41.556-27.048,44.198-51.976h5.484c3.841,0,6.992-3.143,6.992-6.992s-3.143-6.992-6.992-6.992h-5.476c-2.619-24.96-20.579-45.524-44.206-52.048v-42.206l73.508,40.746v121.016h0Z" fill="#ee4546"/>
    <path d="M124.079,141.635c4.698-4.69,10.381-8.413,16.698-10.817,4.397-1.659,9.087-2.69,13.984-2.96V50l-13.984,7.754-73.508,40.746-10.317,5.722c-.103.056-.198.103-.294.167-2.016,1.222-3.365,3.444-3.365,5.976v129.27c0,2.508,1.317,4.706,3.31,5.952.151.087.31.175.46.262l10.206,5.651,73.508,40.746,13.984,7.754v-77.929c-4.897-.27-9.587-1.302-13.984-2.96-15.69-5.96-27.468-20.087-30.024-37.119-.349-2.302-.532-4.643-.532-7.024,0-2.357.175-4.683.524-6.952,1.524-10.206,6.341-19.373,13.333-26.373v-.008h0ZM91.087,168.008c-1.921,0-3.667.786-4.937,2.056s-2.056,3.016-2.056,4.937c0,3.841,3.143,6.992,6.992,6.992h5.484c2.651,24.929,20.587,45.468,44.198,51.976v42.294l-73.508-40.746v-121.016l73.516-40.754v42.214c-23.627,6.516-41.587,27.087-44.206,52.048h-5.484,0Z" fill="#ee4546"/>
    <circle cx="151.841" cy="159.317" r="9.833" fill="#378aff"/>
    <circle cx="153.643" cy="157.23" r="3.825" fill="#fffafc"/>
    <circle cx="198.159" cy="159.317" r="9.833" fill="#378aff"/>
    <circle cx="199.96" cy="157.23" r="3.825" fill="#fffafc"/>
    <path d="M212.532,182.484c0,2.389-1.937,4.325-4.325,4.325-.056,0-.103,0-.159-.008-8.397,9.627-20.206,15.627-33.278,15.627s-24.889-5.992-33.286-15.635c-2.246-.151-4.016-2.024-4.016-4.31,0-.294.024-.587.087-.857.349-1.714,1.698-3.056,3.405-3.389.27-.056.54-.079.833-.079,2.389,0,4.325,1.937,4.325,4.325,0,.595-.119,1.175-.341,1.69,7.921,8.468,18,13.54,28.992,13.54,11.135,0,21.349-5.206,29.325-13.873-.143-.429-.222-.873-.222-1.349,0-2.389,1.937-4.325,4.325-4.325.143,0,.278.008.421.024,1.73.159,3.167,1.357,3.69,2.952.143.429.222.873.222,1.349v-.008h.002Z" fill="#378aff"/>
  </g>
</svg>