<svg xmlns="http://www.w3.org/2000/svg" viewBox="0 0 200 200">
  <path d="M193.733,44.076c-.075-.05-.15-.088-.233-.132l-8.171-4.532L127.105,7.141l-11.075-6.141v61.656c3.878.214,7.593,1.031,11.075,2.344,5.003,1.905,9.504,4.853,13.225,8.567,5.538,5.544,9.359,12.804,10.56,20.887.276,1.798.415,3.639.415,5.506,0,1.892-.145,3.746-.421,5.563-2.03,13.489-11.352,24.678-23.779,29.398-3.482,1.314-7.197,2.13-11.075,2.344v61.72l11.075-6.141,58.218-32.271,8.083-4.476c.126-.069.251-.139.364-.207,1.578-.981,2.622-2.728,2.622-4.714V48.809c0-2.005-1.068-3.765-2.665-4.733h.007,0ZM185.323,147.922l-58.218,32.271v-33.497c18.7-5.154,32.912-21.422,35.005-41.165h4.343c3.042,0,5.538-2.489,5.538-5.538s-2.489-5.538-5.538-5.538h-4.337c-2.074-19.768-16.299-36.055-35.011-41.222V19.807l58.218,32.271v95.845h0Z" fill="#ee4546"/>
  <path d="M59.671,73.575c3.721-3.714,8.222-6.663,13.225-8.567,3.482-1.314,7.197-2.13,11.075-2.344V1l-11.075,6.141L14.678,39.412l-8.171,4.532c-.082.044-.157.082-.233.132-1.597.968-2.665,2.728-2.665,4.733v102.382c0,1.986,1.043,3.727,2.622,4.714.12.069.246.139.364.207l8.083,4.476,58.218,32.271,11.075,6.141v-61.72c-3.878-.214-7.593-1.031-11.075-2.344-12.426-4.72-21.755-15.909-23.779-29.398-.276-1.823-.421-3.677-.421-5.563,0-1.867.139-3.709.415-5.506,1.207-8.083,5.022-15.343,10.56-20.887v-.006h0ZM33.542,94.462c-1.521,0-2.904.623-3.91,1.628-1.006,1.006-1.628,2.389-1.628,3.91,0,3.042,2.489,5.538,5.538,5.538h4.343c2.1,19.744,16.305,36.011,35.005,41.165v33.497l-58.218-32.271V52.085l58.225-32.277v33.433c-18.713,5.161-32.937,21.453-35.011,41.222h-4.343,0Z" fill="#ee4546"/>
  <circle cx="81.659" cy="87.579" r="7.788" fill="#378aff"/>
  <circle cx="83.086" cy="85.926" r="3.029" fill="#fffafc"/>
  <g id="right-eye">
    <circle cx="118.343" cy="87.579" r="7.788" fill="#378aff"/>
    <circle cx="119.769" cy="85.926" r="3.029" fill="#fffafc"/>
  </g>
  <path d="M129.726,105.927c0,1.892-1.534,3.425-3.425,3.425-.044,0-.082,0-.126-.006-6.65,7.625-16.003,12.377-26.356,12.377s-19.712-4.746-26.363-12.383c-1.779-.12-3.181-1.603-3.181-3.414,0-.233.019-.465.069-.679.276-1.357,1.345-2.42,2.697-2.684.214-.044.428-.063.66-.063,1.892,0,3.425,1.534,3.425,3.425,0,.471-.094.931-.27,1.338,6.273,6.707,14.256,10.724,22.962,10.724,8.819,0,16.908-4.123,23.225-10.987-.113-.34-.176-.691-.176-1.068,0-1.892,1.534-3.425,3.425-3.425.113,0,.22.006.333.019,1.37.126,2.508,1.075,2.922,2.338.113.34.176.691.176,1.068v-.006h.002Z" fill="#378aff"/>
</svg>
