<?xml version="1.0" encoding="UTF-8"?>
<svg id="Layer_1" xmlns="http://www.w3.org/2000/svg" version="1.1" viewBox="0 0 64 64">
  <!-- Generator: Adobe Illustrator 30.2.1, SVG Export Plug-In . SVG Version: 2.1.1 Build 1)  -->
  <path d="M61.824,14.206c-.024-.015-.048-.029-.075-.042l-2.601-1.442L40.625,2.453l-3.523-1.953v19.619c1.233.068,2.416.328,3.523.747,1.592.606,3.023,1.544,4.208,2.726,1.762,1.764,2.977,4.074,3.36,6.646.088.573.132,1.158.132,1.753,0,.601-.046,1.191-.134,1.77-.645,4.292-3.611,7.853-7.566,9.355-1.108.418-2.29.678-3.523.747v19.638l3.523-1.953,18.524-10.268,2.572-1.425c.04-.022.079-.044.117-.066.502-.313.835-.868.835-1.5V15.712c0-.639-.339-1.198-.848-1.506h0ZM59.149,47.248l-18.524,10.268v-10.658c5.95-1.641,10.471-6.816,11.138-13.098h1.383c.969,0,1.762-.793,1.762-1.762s-.793-1.762-1.762-1.762h-1.381c-.661-6.289-5.186-11.473-11.14-13.116V6.483l18.524,10.268s0,30.497,0,30.497Z" fill="#ee4546"/>
  <path d="M19.167,23.591c1.185-1.183,2.616-2.121,4.208-2.726,1.108-.418,2.29-.678,3.523-.747V.5l-3.523,1.953L4.851,12.722l-2.601,1.442c-.026.013-.051.026-.075.042-.509.308-.848.868-.848,1.506v32.576c0,.632.333,1.187.835,1.5.037.022.077.044.117.066l2.572,1.425,18.524,10.268,3.523,1.953v-19.638c-1.233-.068-2.416-.328-3.523-.747-3.955-1.502-6.921-5.063-7.566-9.355-.088-.579-.134-1.169-.134-1.77,0-.595.044-1.18.132-1.753.383-2.572,1.599-4.882,3.36-6.646ZM10.854,30.237c-.484,0-.925.198-1.244.518-.319.319-.517.76-.517,1.244,0,.969.793,1.762,1.762,1.762h1.383c.667,6.283,5.188,11.458,11.138,13.098v10.658l-18.524-10.268v-30.497L23.375,6.483v10.638c-5.954,1.643-10.48,6.827-11.14,13.116h-1.381Z" fill="#ee4546"/>
  <circle cx="26.164" cy="28.048" r="2.477" fill="#3b82f6"/>
  <circle cx="26.619" cy="27.522" r=".964" fill="#fff"/>
  <circle cx="37.836" cy="28.048" r="2.477" fill="#3b82f6"/>
  <circle cx="38.29" cy="27.522" r=".964" fill="#fff"/>
  <path d="M41.458,33.885c0,.601-.489,1.09-1.09,1.09-.013,0-.026,0-.04-.002-2.116,2.427-5.091,3.937-8.386,3.937s-6.272-1.511-8.388-3.94c-.566-.037-1.013-.511-1.013-1.086,0-.075.007-.148.022-.216.088-.432.427-.771.859-.854.068-.013.137-.02.209-.02.601,0,1.09.489,1.09,1.09,0,.15-.031.295-.086.425,1.995,2.134,4.536,3.411,7.307,3.411,2.805,0,5.38-1.312,7.39-3.497-.035-.108-.055-.22-.055-.339,0-.601.489-1.09,1.09-1.09.035,0,.07.002.106.007.436.04.797.341.929.744.035.108.055.22.055.339h.001Z" fill="#3b82f6"/>
</svg>