<?xml version="1.0" encoding="UTF-8"?>
<svg id="Layer_1" xmlns="http://www.w3.org/2000/svg" version="1.1" viewBox="0 0 32 32">
  <!-- Generator: Adobe Illustrator 30.2.1, SVG Export Plug-In . SVG Version: 2.1.1 Build 1)  -->
  <path d="M30.912,7.103c-.012-.008-.024-.014-.037-.021l-1.3-.721L20.312,1.227l-1.762-.977v9.809c.617.034,1.208.164,1.762.373.796.303,1.512.772,2.104,1.363.881.882,1.489,2.037,1.68,3.323.044.286.066.579.066.876,0,.301-.023.596-.067.885-.323,2.146-1.806,3.926-3.783,4.677-.554.209-1.145.339-1.762.373v9.819l1.762-.977,9.262-5.134,1.286-.712c.02-.011.04-.022.058-.033.251-.156.417-.434.417-.75V7.856c0-.319-.17-.599-.424-.753h0ZM29.574,23.624l-9.262,5.134v-5.329c2.975-.82,5.236-3.408,5.569-6.549h.691c.484,0,.881-.396.881-.881s-.396-.881-.881-.881h-.69c-.33-3.145-2.593-5.736-5.57-6.558V3.242l9.262,5.134s0,15.248,0,15.248Z" fill="#ee4546"/>
  <path d="M9.584,11.796c.592-.591,1.308-1.06,2.104-1.363.554-.209,1.145-.339,1.762-.373V.25l-1.762.977L2.426,6.361l-1.3.721c-.013.007-.025.013-.037.021-.254.154-.424.434-.424.753v16.288c0,.316.166.593.417.75.019.011.039.022.058.033l1.286.712,9.262,5.134,1.762.977v-9.819c-.617-.034-1.208-.164-1.762-.373-1.977-.751-3.461-2.531-3.783-4.677-.044-.29-.067-.585-.067-.885,0-.297.022-.59.066-.876.192-1.286.799-2.441,1.68-3.323h0ZM5.427,15.119c-.242,0-.462.099-.622.259s-.259.38-.259.622c0,.484.396.881.881.881h.691c.334,3.141,2.594,5.729,5.569,6.549v5.329l-9.262-5.134v-15.248L11.688,3.242v5.319c-2.977.821-5.24,3.413-5.57,6.558h-.691Z" fill="#ee4546"/>
  <circle cx="13.082" cy="14.024" r="1.239" fill="#378aff"/>
  <circle cx="13.309" cy="13.761" r=".482" fill="#fffafc"/>
  <circle cx="18.918" cy="14.024" r="1.239" fill="#378aff"/>
  <circle cx="19.145" cy="13.761" r=".482" fill="#fffafc"/>
  <path d="M20.729,16.943c0,.301-.244.545-.545.545-.007,0-.013,0-.02,0-1.058,1.213-2.546,1.969-4.193,1.969s-3.136-.755-4.194-1.97c-.283-.019-.506-.255-.506-.543,0-.037.003-.074.011-.108.044-.216.214-.385.429-.427.034-.007.068-.01.105-.01.301,0,.545.244.545.545,0,.075-.015.148-.043.213.998,1.067,2.268,1.706,3.653,1.706,1.403,0,2.69-.656,3.695-1.748-.018-.054-.028-.11-.028-.17,0-.301.244-.545.545-.545.018,0,.035,0,.053.003.218.02.399.171.465.372.018.054.028.11.028.17h0Z" fill="#378aff"/>
</svg>