<?xml version="1.0" encoding="UTF-8"?>
<svg id="Layer_1" xmlns="http://www.w3.org/2000/svg" version="1.1" viewBox="0 0 512 512">
  <!-- Generator: Adobe Illustrator 30.2.1, SVG Export Plug-In . SVG Version: 2.1.1 Build 1)  -->
  <g opacity=".2">
    <ellipse cx="269.665" cy="492.245" rx="164.511" ry="18.755" fill="#000072"/>
  </g>
  <g>
    <path d="M332.966,297.058c-8.294,2.524-17.653,4.578-27.802,6.07l-3.845-23.521c9.085,0,16.952,3.926,23.845,9.722,0,.009.007.016.016.025,2.748,2.314,5.345,4.925,7.787,7.707v-.003Z" fill="#535360"/>
    <path d="M328.108,291.985c-7.053,2.378-15.081,4.345-23.82,5.82l-2.974-18.201c9.085,0,16.952,3.926,23.845,9.722,0,.009.009.016.016.025,1,.838,1.974,1.725,2.935,2.636h-.001Z" fill="#93b3c1"/>
    <g>
      <path d="M214.105,385.395c-33.049,29.019-92.431,16.928-92.431,16.928v-64.285s34.259,3.022,46.752-1.008c13.425-4.387,16.378-53.467,62.964-53.467" fill="#777782"/>
      <path d="M231.389,283.561l-17.28,101.838c-33.052,29.013-92.435,16.922-92.435,16.922v-64.283s34.263,3.025,46.751-1.005c8.877-2.903,13.181-25.348,28.548-40.214v-.007c.854-.831,1.737-1.631,2.667-2.407,7.482-6.27,17.372-10.704,31.108-10.834.213-.007.427-.007.64-.007h.001Z" fill="#777782"/>
      <path d="M231.389,283.561l-3.367,19.855-13.913,81.982c-33.052,29.013-92.435,16.922-92.435,16.922v-64.283s34.263,3.025,46.751-1.005c8.877-2.903,13.181-25.348,28.548-40.214v-.007c.823-.8,1.676-1.577,2.575-2.331.031-.023.061-.054.092-.076,7.482-6.27,17.372-10.704,31.108-10.834.213-.007.427-.007.64-.007h.001Z" fill="#5f5f82"/>
      <g opacity=".2">
        <path d="M231.389,283.561l-3.367,19.855c-10.614-2.171-20.237-5.212-28.472-8.937.031-.023.061-.054.092-.076,7.482-6.27,17.372-10.704,31.108-10.834.213-.007.427-.007.64-.007h0Z" fill="#000072"/>
      </g>
      <path d="M333.142,294.463c-8.228,3.733-17.851,6.773-28.458,8.945l-3.367-19.848c.213,0,.427,0,.64.007,13.738.13,23.628,4.564,31.108,10.834.023.023.054.045.076.061h.001Z" fill="#535360"/>
      <path d="M323.512,298.288c-16.008,5.569-35.78,8.854-57.181,8.854s-41.144-3.276-57.143-8.838c8.038-11.268,39.216-53.341,57.174-53.341s49.106,42.034,57.15,53.327h0Z" fill="#535360"/>
      <g opacity=".7">
        <path d="M196.974,296.818c-11.025,17.448-14.819,41.158-27.894,45.219-8.991,2.789-35.406,1.425-47.407.618v-4.618s34.263,3.025,46.751-1.005c8.877-2.903,13.181-25.348,28.548-40.214h.001Z" fill="#fff"/>
      </g>
      <g opacity=".2">
        <path d="M217.85,362.478l-3.748,22.916c-33.049,29.019-92.426,16.928-92.426,16.928v-24.553c5.772-4.409,13.881-7.972,20.588-1.016,18.863,19.572,34.266-1.193,49.146-26.23,8.036-13.511,18.532-1.652,26.44,11.954h0Z" fill="#000072"/>
      </g>
      <path d="M150.581,407.938c-16.2,0-28.41-2.404-29.514-2.629-1.419-.289-2.439-1.539-2.439-2.987v-64.286c0-.855.358-1.67.989-2.247s1.472-.87,2.326-.788c.337.029,33.785,2.922,45.55-.873,3.219-1.052,6.506-7.325,9.986-13.965,8.274-15.79,20.777-39.647,53.914-39.647,1.683,0,3.047,1.364,3.047,3.047s-1.364,3.047-3.047,3.047c-29.449,0-40.469,21.028-48.515,36.382-4.424,8.441-7.918,15.109-13.502,16.933-10.72,3.459-35.608,2.062-44.653,1.408v58.427c11.355,1.817,59.569,7.756,87.373-16.655,1.265-1.11,3.191-.986,4.301.28,1.11,1.265.985,3.19-.28,4.3-18.78,16.49-45.276,20.253-65.536,20.253h0Z" fill="#000072"/>
      <path d="M142.175,380.85c-.968,7.278-6.562,12.954-16.348,17.831-7.657,3.813-12.84,10.576-19.242,15.316-1.887,1.403-3.877,2.62-6.07,3.539-5.82,2.442-16.268,4.192-18.991-3.305-2.54-6.972,3.273-10.633,7.618-13.808,2.54-1.853,4.578-3.547,4.143-5.626-2.12,1.121-4.167,2.015-6.119,2.693-2.33.806-4.53,1.314-6.578,1.564h-.016c-9.649,1.169-15.889-3.442-16.042-9.777-.226-9.503,9.149-10.681,16.629-11.398,2.232-.217,4.297-.388,5.884-.726h.009c.984-.21,1.782-.484,2.33-.879-1.709-.274-3.281-.621-4.731-1.048h-.009c-12.011-3.483-15.332-11.849-13.477-20.709,1.789-8.504,8.996-12.671,15.017-12.47,2.846.096,5.425,1.169,7.037,3.241,0,.009.009.016.016.032.048.064.089.13.137.194.032.041.057.073.064.08v.009c.226.315.436.646.612,1,2.789,5.642-2.282,8.891.742,12.164,1.886,2.047,7.449,1.322,10.423-.621,4.546-2.967,6.416-8.689,3.692-11.019-3.28-2.798-8.915,2.248-13.824-1.153-.041-.025-.08-.057-.121-.089-.201-.153-.395-.306-.589-.468-.064-.048-.128-.096-.185-.162-1.999-1.862-3.161-5.836-2.031-9.827,1.233-4.368,5.215-8.754,13.856-10.407,10.019-1.919,15.784,4.039,19.757,10.407h.009c2.951,4.715,4.925,9.656,6.94,11.785l9.31,27.786c.354,2.063.404,4.014.146,5.852v-.003Z" fill="#5f5f82"/>
      <g opacity=".7">
        <path d="M70.691,385.912c-3.143,4.505,1.427,12.018,9.882,13.139-9.649,1.169-15.889-3.442-16.042-9.777-.226-9.503,9.149-10.681,16.629-11.398,2.232-.217,4.297-.388,5.884-.726h.009c-1.096,5.473-12.381,3.056-16.364,8.762h.001Z" fill="#fff"/>
      </g>
      <g opacity=".7">
        <path d="M93.44,345.591c.306.233-10.544-2.435-15.476,4.651-9.068,13.034,6.682,24.981,6.682,24.981-12.011-3.483-15.332-11.849-13.477-20.709,1.789-8.504,8.996-12.671,15.017-12.47,2.846.096,5.425,1.169,7.037,3.241,0,.009.009.016.016.032.105.153.178.251.201.274h0Z" fill="#fff"/>
      </g>
      <g opacity=".7">
        <path d="M125.771,335.426c-17.621-13.719-35.701-.016-30.687,10.544,0,.009.009.009.009.016-.041-.032-.089-.064-.13-.105-.201-.153-.395-.306-.589-.468-.064-.048-.128-.096-.185-.162-1.999-1.862-3.161-5.836-2.031-9.827,1.233-4.368,5.215-8.754,13.856-10.407,10.019-1.919,15.784,4.039,19.757,10.407h0Z" fill="#fff"/>
      </g>
      <g opacity=".2">
        <path d="M142.175,380.85c-.968,7.278-6.562,12.954-16.348,17.831-7.657,3.813-12.84,10.576-19.242,15.316-.057-3.434-.653-7.981-3.152-10.48-3.958-3.966-10.204-3.652-14.292-3.095,2.54-1.853,4.578-3.547,4.143-5.626-2.12,1.121-4.167,2.015-6.119,2.693,1.105-2.837,1.645-6.948.338-10.971-1.072-3.28-4.272-6.682-6.344-8.641,3.62-.347,6.795-.58,8.223-1.604-1.709-.274-3.281-.621-4.731-1.048,3.127-1.096,6.136-4.625,6.002-8.587s-2.938-7.857-1.609-11.557c1.604-4.441,1.99-7.191-2.862-13.034,3.401.114,6.416,1.628,7.867,4.555,2.789,5.642-2.282,8.891.742,12.164,1.886,2.047,7.449,1.322,10.423-.621,4.546-2.967,6.416-8.689,3.692-11.019-3.483-2.967-9.608,2.894-14.719-1.869-1.999-1.862-3.161-5.836-2.031-9.827.194.322.363.71.516,1.153,3.346,9.939,11.956.844,18.475,4.982,6.751,4.284.302,22.119,11.79,21.615-4.434,5.642-15.622-3.091-23.074,2.821-8.559,6.79-5.731,20.091-.201,26.363,8.465,9.608,15.049,2.62,27.544-.475,8.036-1.999,12.68-7.424,14.969-11.035v-.004Z" fill="#000072"/>
      </g>
      <path d="M132.717,347.209c-2.996-2.406-4.892-6.001-7.198-8.973-2.178-3.013-4.545-5.792-7.216-7.729-2.677-1.947-5.62-2.839-8.736-2.688-6.958.372-16.46,4.931-14.254,13.162,1.717,5.667,7.561,1.69,11.831,2.25,7.335.994,7.335,9.307,3.446,14.01-2.833,3.835-7.657,5.954-12.495,5.783-1.636-.023-4.17-.629-5.55-2.205-.191-.219-.395-.45-.567-.699-.992-1.237-1.432-3.4-1.156-4.889.189-1.473.819-3.021.982-4.201.204-1.274-.054-2.358-.686-3.427-2.356-3.516-7.646-2.941-11.162-.838-4.112,2.358-6.172,7.191-6.212,11.857-.393,9.199,7.994,13.503,16.186,14.653,2.672.361,3.456,4.038,1.228,5.479-3.118,1.934-6.207,1.695-9.503,2.136-4.421.506-10.235.793-12.957,4.132-1.081,1.416-1.329,3.618-.972,5.383.935,4.17,5.74,5.82,9.868,5.776,4.795.017,9.783-1.714,14.338-4.115,1.741-.953,4.003.157,4.338,2.103.552,2.069-.466,4.45-1.741,5.826-2.99,3.418-7.243,5.125-9.458,8.703-1.061,1.702-.581,4.048.535,5.524,2.269,2.355,5.931,1.826,9.093,1.291,4.025-.823,7.394-2.594,10.668-5.125,5.107-3.944,10.174-9.569,16.154-13.034,1.964-1.189,4.138-2.069,6.143-3.175,7.947-4.234,13.952-9.713,14.369-19.179,3.314,7.041.22,15.24-5.41,20.161-3.44,3.321-7.643,5.31-11.65,7.74-5.626,3.762-9.576,8.67-15.141,13.164-6.668,5.539-17.508,9.536-25.982,5.795-4.519-2.127-7.02-7.296-6.422-12.183.354-3.126,2.261-5.919,4.422-7.886,2.801-2.688,6.063-4.014,8.396-6.519.038-.055.013.125.061.153l4.409,2.065c-5.147,2.678-10.867,4.775-17.145,4.787-6.538.191-14.383-3.426-15.798-10.57-1.231-5.314,1.17-11.383,6.164-13.812,4.067-2.186,8.874-2.651,13.145-3.072,2.133-.254,4.688-.286,6.534-1.026l1.295,5.489c-6.041-.946-12.715-3.249-16.945-8.212-7.434-8.642-5.023-23.741,4.858-29.535,7.222-4.607,18.921-3.128,20.933,6.505.673,2.696-.325,5.619-.89,8.006-.026.412-.061.345.13.597l.036.048s-.009-.015-.016-.02c-.028-.022-.029-.02,0-.004.112.085.689.254,1.332.267,2.757.079,5.674-1.032,7.396-3.388.95-1.3,1.725-2.936,1.224-4.061-.149-.114-.175-.149-.465-.172-1.335-.048-3.212.511-4.832.766-3.757.813-8.285-.399-10.698-3.646-3.816-5.096-3.146-12.476.699-17.289,3.214-4.086,8.068-6.216,12.945-7.175,5.933-1.361,12.714.15,17.081,4.476,3.161,2.973,5.122,6.591,6.701,10.142,1.622,3.522,2.46,7.241,4.316,10.621h0v-.003Z" fill="#000072"/>
      <path d="M93.616,368.381c-1.6,8.639-1.753,17.623,3.848,24.752,1.692,2.33,3.879,4.401,6.177,6.685-1.591-.294-3.152-.784-4.622-1.502-11.568-5.301-13.815-20.863-5.403-29.935h0Z" fill="#000072"/>
    </g>
    <g>
      <path d="M318.6,385.395c33.049,29.019,92.431,16.928,92.431,16.928v-64.285s-34.259,3.022-46.752-1.008c-13.425-4.387-16.378-53.467-62.964-53.467" fill="#777782"/>
      <path d="M301.317,283.561l17.28,101.838c33.052,29.013,92.435,16.922,92.435,16.922v-64.283s-34.263,3.025-46.751-1.005c-8.877-2.903-13.181-25.348-28.548-40.214v-.007c-.854-.831-1.737-1.631-2.667-2.407-7.482-6.27-17.372-10.704-31.108-10.834-.213-.007-.427-.007-.64-.007h-.002Z" fill="#5f5f82"/>
      <g opacity=".2">
        <path d="M333.142,294.463c-8.228,3.733-17.851,6.773-28.458,8.945l-3.367-19.848c.213,0,.427,0,.64.007,13.738.13,23.628,4.564,31.108,10.834.023.023.054.045.076.061h.001Z" fill="#000072"/>
      </g>
      <g opacity=".7">
        <path d="M335.731,296.818c11.025,17.448,14.819,41.158,27.894,45.219,8.991,2.789,35.406,1.425,47.407.618v-4.618s-34.263,3.025-46.751-1.005c-8.877-2.903-13.181-25.348-28.548-40.214h-.001Z" fill="#fff"/>
      </g>
      <g opacity=".2">
        <path d="M314.855,362.478l3.748,22.916c33.049,29.019,92.426,16.928,92.426,16.928v-24.553c-5.772-4.409-13.881-7.972-20.588-1.016-18.863,19.572-34.266-1.193-49.146-26.23-8.036-13.511-18.532-1.652-26.44,11.954Z" fill="#000072"/>
      </g>
      <path d="M382.125,407.938c-20.26,0-46.754-3.761-65.536-20.253-1.265-1.11-1.39-3.035-.28-4.3,1.11-1.266,3.037-1.39,4.301-.28,27.836,24.442,76.02,18.481,87.373,16.658v-58.428c-9.044.654-33.929,2.052-44.641-1.405-5.595-1.829-9.09-8.497-13.513-16.938-8.046-15.354-19.065-36.382-48.515-36.382-1.683,0-3.047-1.364-3.047-3.047s1.364-3.047,3.047-3.047c33.137,0,45.64,23.859,53.914,39.647,3.48,6.642,6.767,12.915,9.997,13.97,11.753,3.791,45.202.899,45.539.87.851-.083,1.695.21,2.326.788s.989,1.393.989,2.247v64.286c0,1.448-1.02,2.697-2.439,2.987-1.105.224-13.318,2.629-29.514,2.629v-.003Z" fill="#000072"/>
      <path d="M390.53,380.85c.968,7.278,6.561,12.954,16.348,17.831,7.657,3.813,12.84,10.576,19.242,15.316,1.887,1.403,3.877,2.62,6.07,3.539,5.82,2.442,16.268,4.192,18.991-3.305,2.54-6.972-3.273-10.633-7.618-13.808-2.54-1.853-4.578-3.547-4.143-5.626,2.12,1.121,4.167,2.015,6.119,2.693,2.33.806,4.53,1.314,6.578,1.564h.016c9.649,1.169,15.889-3.442,16.042-9.777.226-9.503-9.149-10.681-16.629-11.398-2.232-.217-4.297-.388-5.884-.726h-.009c-.984-.21-1.782-.484-2.33-.879,1.709-.274,3.281-.621,4.731-1.048h.009c12.011-3.483,15.332-11.849,13.477-20.709-1.789-8.504-8.996-12.671-15.017-12.47-2.846.096-5.425,1.169-7.037,3.241,0,.009-.009.016-.016.032-.048.064-.089.13-.137.194-.032.041-.057.073-.064.08v.009c-.226.315-.436.646-.612,1-2.789,5.642,2.282,8.891-.742,12.164-1.886,2.047-7.449,1.322-10.423-.621-4.546-2.967-6.416-8.689-3.692-11.019,3.28-2.798,8.915,2.248,13.824-1.153.041-.025.08-.057.121-.089.201-.153.395-.306.589-.468.064-.048.128-.096.185-.162,1.999-1.862,3.161-5.836,2.031-9.827-1.233-4.368-5.215-8.754-13.856-10.407-10.019-1.919-15.784,4.039-19.757,10.407h-.009c-2.951,4.715-4.925,9.656-6.94,11.785l-9.31,27.786c-.354,2.063-.404,4.014-.146,5.852v-.003Z" fill="#5f5f82"/>
      <g opacity=".7">
        <path d="M462.014,385.912c3.143,4.505-1.427,12.018-9.882,13.139,9.649,1.169,15.889-3.442,16.042-9.777.226-9.503-9.149-10.681-16.629-11.398-2.232-.217-4.297-.388-5.884-.726h-.009c1.096,5.473,12.381,3.056,16.364,8.762h-.001Z" fill="#fff"/>
      </g>
      <g opacity=".7">
        <path d="M439.267,345.591c-.306.233,10.544-2.435,15.476,4.651,9.068,13.034-6.682,24.981-6.682,24.981,12.011-3.483,15.332-11.849,13.477-20.709-1.789-8.504-8.996-12.671-15.017-12.47-2.846.096-5.425,1.169-7.037,3.241,0,.009-.009.016-.016.032-.105.153-.178.251-.201.274h0Z" fill="#fff"/>
      </g>
      <g opacity=".7">
        <path d="M406.934,335.426c17.621-13.719,35.701-.016,30.687,10.544,0,.009-.009.009-.009.016.041-.032.089-.064.13-.105.201-.153.395-.306.589-.468.064-.048.128-.096.185-.162,1.999-1.862,3.161-5.836,2.031-9.827-1.233-4.368-5.215-8.754-13.856-10.407-10.019-1.919-15.784,4.039-19.757,10.407h0Z" fill="#fff"/>
      </g>
      <g opacity=".2">
        <path d="M390.53,380.85c.968,7.278,6.561,12.954,16.348,17.831,7.657,3.813,12.84,10.576,19.242,15.316.057-3.434.653-7.981,3.152-10.48,3.958-3.966,10.204-3.652,14.292-3.095-2.54-1.853-4.578-3.547-4.143-5.626,2.12,1.121,4.167,2.015,6.119,2.693-1.105-2.837-1.645-6.948-.338-10.971,1.072-3.28,4.272-6.682,6.344-8.641-3.62-.347-6.795-.58-8.223-1.604,1.709-.274,3.281-.621,4.731-1.048-3.127-1.096-6.136-4.625-6.002-8.587.134-3.962,2.938-7.857,1.609-11.557-1.604-4.441-1.99-7.191,2.862-13.034-3.401.114-6.416,1.628-7.867,4.555-2.789,5.642,2.282,8.891-.742,12.164-1.886,2.047-7.449,1.322-10.423-.621-4.546-2.967-6.416-8.689-3.692-11.019,3.483-2.967,9.608,2.894,14.719-1.869,1.999-1.862,3.161-5.836,2.031-9.827-.194.322-.363.71-.516,1.153-3.346,9.939-11.956.844-18.475,4.982-6.751,4.284-.302,22.119-11.79,21.615,4.434,5.642,15.622-3.091,23.074,2.821,8.559,6.79,5.731,20.091.201,26.363-8.465,9.608-15.049,2.62-27.544-.475-8.036-1.999-12.68-7.424-14.969-11.035v-.004Z" fill="#000072"/>
      </g>
      <path d="M399.988,347.209c1.856-3.381,2.696-7.099,4.316-10.621,1.58-3.551,3.541-7.171,6.7-10.142,4.371-4.322,11.146-5.84,17.081-4.476,4.877.957,9.731,3.089,12.945,7.175,3.845,4.813,4.516,12.193.701,17.289-2.413,3.249-6.943,4.454-10.698,3.644-1.616-.255-3.504-.826-4.83-.766-1.472.055-.066,3.311.759,4.233,1.722,2.358,4.64,3.465,7.396,3.388.643-.013,1.22-.182,1.332-.267.055-.026-.01,0-.015.025l.036-.048c.189-.249.157-.185.13-.597-.564-2.385-1.562-5.311-.889-8.006,2.046-9.649,13.671-11.111,20.933-6.503,9.881,5.794,12.292,20.892,4.858,29.535-4.23,4.962-10.905,7.267-16.945,8.212l1.295-5.489c1.845.739,4.395.772,6.534,1.026,8.896.619,19.714,3.018,19.596,14.204.071,8.657-8.379,13.465-16.087,13.248-6.277-.01-11.998-2.108-17.145-4.787l4.409-2.065c.048-.028.023-.208.061-.153.032.039.175.243.425.484,3.343,2.917,8.172,5.062,10.746,9.343,3.627,5.531,1.291,13.978-4.774,16.763-6.492,2.868-13.576,1.128-19.657-1.663-6.441-3.143-11.519-9.015-16.502-13.4-3.23-3.101-6.953-5.085-10.765-7.261-6.213-3.719-12.314-9.824-12.607-17.503-.083-2.489.374-4.896,1.346-7.032.424,9.468,6.413,14.939,14.37,19.179,2.004,1.106,4.178,1.986,6.142,3.175,5.979,3.465,11.047,9.09,16.154,13.034,3.273,2.531,6.643,4.303,10.668,5.123,3.162.546,6.825,1.059,9.093-1.29,1.113-1.488,1.594-3.822.535-5.524-2.216-3.58-6.467-5.286-9.458-8.703-1.275-1.383-2.292-3.749-1.741-5.823.303-1.628,1.869-2.702,3.497-2.397.329.061.631.173.912.329,4.54,2.384,9.495,4.093,14.267,4.077,4.127.047,8.935-1.606,9.868-5.776.863-4.519-1.66-7.267-6.286-8.358-3.659-.976-7.899-1.08-11.87-1.606-1.928-.335-3.312-.423-5.276-1.687-2.259-1.464-1.406-5.12,1.218-5.476,8.189-1.145,16.595-5.46,16.196-14.656-.041-4.666-2.1-9.501-6.212-11.857-3.612-2.178-9.235-2.707-11.374,1.217-1.679,3.142,1.285,6.248.44,9.702-1.464,6.407-9.41,6.089-14.086,4.023-6.522-2.541-12.292-13.346-4.568-17.789,1.865-1.008,4.456-.775,6.114-.437,2.192.353,4.322,1.141,6.239.102,2.146-1.295,2.461-4.269,1.998-6.592-.829-4.312-5.337-7.174-9.582-8.298-9.317-3.056-15.46,2.062-20.744,9.544-2.308,2.973-4.201,6.567-7.198,8.973h-.001Z" fill="#000072"/>
      <path d="M439.089,368.381c8.414,9.077,6.164,24.634-5.403,29.935-1.47.718-3.031,1.208-4.622,1.502,2.298-2.286,4.485-4.355,6.177-6.685,5.601-7.13,5.448-16.11,3.848-24.752h0Z" fill="#000072"/>
    </g>
    <path d="M266.53,274.581" fill="none" stroke="#512717" stroke-linecap="round" stroke-miterlimit="10" stroke-width="35.199"/>
    <path d="M347.61,429.291c-21.075,30.058-81.25,27.635-81.25,27.635,0,0-1.158.045-3.216.045-12.74,0-59.887-1.798-78.043-27.68-18.248-26.027-9.76-57.357,2.567-80.092,1.074-1.973,2.171-3.877,3.284-5.715,4.556-7.513,8.403-22.37,18.324-40.67l57.082-54.179,57.082,54.179c9.92,18.302,13.769,33.159,18.324,40.67,1.112,1.836,2.209,3.749,3.284,5.722,12.327,22.736,20.815,54.066,2.56,80.084h.001Z" fill="#fff"/>
    <path d="M348.688,430.307c-21.354,30.457-82.33,28.002-82.33,28.002,0,0-1.173.047-3.258.047-12.909,0-60.681-1.821-79.079-28.048-9.326-13.302-11.758-27.979-10.283-42.206,1.459-13.981,6.694-27.531,12.885-38.949,1.088-1.999,2.2-3.93,3.328-5.791,4.616-7.612,8.516-22.667,18.567-41.211l57.84-54.899,57.84,54.899c10.051,18.544,13.951,33.599,18.567,41.211,1.128,1.861,2.238,3.799,3.328,5.798,6.184,11.411,11.418,24.968,12.878,38.941,1.482,14.229-.95,28.905-10.283,42.206h0Z" fill="#fff"/>
    <path d="M348.688,430.307c-21.354,30.457-82.33,28.002-82.33,28.002,0,0-1.173.047-3.258.047-12.909,0-60.681-1.821-79.079-28.048-9.326-13.302-11.758-27.979-10.283-42.206,10.229,1.22,23.716,4.979,37.019,16.521,19.795,17.178,41.049,26.179,55.602,26.179s35.806-9.002,55.601-26.179c13.302-11.542,26.782-15.301,37.011-16.521,1.482,14.229-.95,28.905-10.283,42.206h0Z" fill="#dfe7f2"/>
    <path d="M266.328,326.794c-33.615,0-77.504,18.427-76.377,16.566,4.616-7.612,8.516-22.667,18.567-41.211,0,0,37.548-54.899,57.84-54.899s57.84,54.899,57.84,54.899c10.051,18.544,13.951,33.599,18.567,41.211,1.128,1.861-42.786-16.566-76.439-16.566h.003Z" fill="#5f5f82"/>
    <g opacity=".2">
      <path d="M323.512,298.288c-16.008,5.569-35.78,8.854-57.181,8.854s-41.144-3.276-57.143-8.838c8.038-11.268,39.216-53.341,57.174-53.341s49.106,42.034,57.15,53.327h0Z" fill="#000072"/>
    </g>
    <path d="M324.201,302.15c9.215,11.108,14.112,24.742,20.12,37.555,2.339,4.151,4.911,8.15,7.006,12.438,13.815,26.419,18.128,60.158-2.706,84.329-19.059,21.136-55.352,25.739-82.387,24.933-.007.004.125-6.197.122-6.197.001-.001.125,6.196.125,6.196-26.993.815-63.337-3.828-82.356-24.959-20.84-24.343-16.472-57.639-2.64-84.252,3.127-6.379,7.271-11.997,9.999-18.621,4.795-10.815,9.881-21.921,17.03-31.42-2.862,7.704-6.796,18.921-9.451,26.813-1.769,5.013-3.453,10.314-6.114,15.234-.826,1.55-1.786,3.075-2.605,4.625-14.044,25.203-20.939,58.953-.584,82.652,17.388,19.062,51.756,23.431,76.474,23.735,0,0,.127,6.197.124,6.196.001,0,.121-6.2.127-6.196,18.29-.147,37.323-2.559,54.38-9.209,12.763-4.975,23.536-13.146,29.261-25.564,10.148-20.785,5.055-45.256-4.679-65.386-1.972-4.288-4.488-8.333-6.684-12.501-6.043-13.308-9.792-26.58-14.561-40.401h0Z" fill="#000072"/>
    <g>
      <path d="M175.994,95.756c23.692-22.801,21.11-40.271,14.026-51.428-8.947-14.093-23.944-29.746-45.578-27.11-30.827,3.755-51.147,30.511-40.494,59.486,6.366,17.315,18.169,26.848,28.984,32.091,12.147,5.89,25.504,3.858,43.061-13.038h0Z" fill="#5f5f82"/>
      <g opacity=".3">
        <path d="M197.491,58.318c-9.014-15.552-25.41-35.046-49.971-32.05-25.692,3.137-44.425,21.507-45.4,44.176-5.826-26.47,13.732-49.742,42.321-53.226,29.632-3.606,46.811,27.084,53.05,41.1h0Z" fill="#fff"/>
      </g>
      <path d="M195.791,58.248c-10.051-15.333-21.059-33.864-40.38-37.478-6.065-1.199-12.182-.393-18.23,1.135-15.944,3.998-30.154,16.792-32.582,33.424-2.527,16.329,6.28,33.644,18.826,43.842,6.484,5.278,14.255,8.963,22.408,11.14,1.636.424,2.617,2.103,2.18,3.738-.434,1.626-2.104,2.592-3.73,2.158-8.896-2.375-17.451-6.411-24.691-12.298-3.618-2.93-6.886-6.301-9.732-9.993-8.293-11.217-13.559-25.437-11.283-39.523,3.082-21.598,22.884-37.316,43.77-40.147,17.344-2.975,32.717,5.662,43.35,18.882,5.864,7.074,10.443,15.118,12.872,23.862.447,1.689-1.817,2.707-2.776,1.259h-.001Z" fill="#000072"/>
    </g>
    <g>
      <path d="M356.652,95.848c-23.668-22.826-21.069-40.293-13.974-51.443,8.961-14.085,23.974-29.721,45.606-27.063,30.823,3.787,51.116,30.563,40.433,59.529-6.384,17.308-18.197,26.829-29.017,32.061-12.153,5.877-25.509,3.832-43.048-13.082h.001Z" fill="#5f5f82"/>
      <g opacity=".3">
        <path d="M335.194,58.388c9.03-15.543,25.446-35.019,50.003-31.999,25.689,3.163,44.403,21.553,45.355,44.223,5.853-26.465-13.681-49.757-42.267-53.27-29.628-3.637-46.838,27.036-53.092,41.046h.001Z" fill="#fff"/>
      </g>
      <path d="M334.118,57.059c4.873-16.846,18.377-34.183,35.076-40.656,8.934-3.488,18.899-3.156,28.031-.589,18.154,4.781,34.182,19.638,36.886,38.75,2.261,14.089-3.019,28.302-11.323,39.512-8.456,11.137-21.057,18.785-34.447,22.256-3.92.917-5.423-4.747-1.566-5.891,12.241-3.195,23.485-9.989,31.162-20.058,13.114-17.506,15.325-40.033-.966-56.329-8.714-8.673-21.423-13.548-33.656-13.751-12.626.013-23.435,7.37-31.549,16.904-5.601,6.601-10.008,13.901-14.876,21.112-.925,1.451-3.261.405-2.774-1.26h.001Z" fill="#000072"/>
    </g>
    <path d="M286.362,290.067c57.658-1.067,101.544-18.819,118.055-52.142,12.444-25.115,3.33-50.949,3.327-50.987-.315-1.511,5.901-106.988-75.516-143.846-22.956-10.392-44.521-13.161-65.787-13.4h0c-21.264.24-42.831,3.008-65.787,13.4-81.418,36.86-75.201,142.335-75.516,143.846-.003.038-9.116,25.873,3.327,50.987,16.511,33.323,60.398,51.076,118.054,52.142" fill="#fff"/>
    <path d="M404.417,237.923c-1.08,2.177-2.273,4.28-3.579,6.32-18.71,29.245-60.578,44.826-114.48,45.826h-39.837c-54.621-1.016-96.875-16.992-115.215-47.003-1.024-1.668-1.974-3.385-2.846-5.142-12.438-25.118-3.33-50.945-3.33-50.985.322-1.515-5.9-106.992,75.522-143.846,11.479-5.199,22.61-8.488,33.524-10.512,10.923-2.024,21.627-2.773,32.26-2.894,21.264.242,42.836,3.015,65.784,13.406,81.422,36.854,75.207,142.33,75.522,143.846,0,.041,9.117,25.867-3.33,50.985h.003Z" fill="#fff"/>
    <path d="M402.191,241.737c-.475.799-.927,1.636-1.354,2.506-18.71,29.245-60.578,44.826-114.48,45.826,0,0-5.384.753-20.039.753s-19.798-.753-19.798-.753c-54.621-1.016-96.875-16.992-115.215-47.003-.274-.5-.557-.984-.838-1.467,26.061,21.41,61.682,36.936,135.849,36.968,74.176.041,109.788-15.444,135.874-36.831h0Z" fill="#dfe7f2"/>
    <path d="M286.362,290.067c26.588-4.612,53.983-7.19,78.413-19.284,32.987-15.992,50.096-45.783,39.882-82.117-.156-.472-.3-.968-.37-1.456l.063.436c-.166-1.37-.051-3.076-.079-4.456-.3-32.886-7.312-66.597-24.987-94.67-18.858-29.822-49.141-47.226-83.561-53.028-38.212-6.155-80.252-1.338-112.514,21.277-36.727,25.826-52.38,72.044-54.685,115.357-.27,4.188-.274,8.711-.261,12.915,0,1.609.079,2.143-.204,3.026-10.327,36.606,7.032,66.3,40.159,82.496,24.369,12.157,51.683,15.162,78.304,19.507-52.15,6.121-127.004-17.647-127.787-79.93-.06-8.046.941-16.113,3.314-23.81l.015-.047c-.032.131-.061.274-.041.412l.055-.392c-.042.048-.057.179-.051.17v-.455c-.086-9.795.5-19.652,1.738-29.363,6.333-52.135,31.578-100.101,82.824-119.517,36.536-14.292,83.2-14.383,119.788-.21,26.559,9.843,49.052,29.666,62.739,54.426,15.797,28.462,22.306,61.394,22.102,93.742l-.01.925-.004.453c.004-.009-.013-.172-.061-.242l.063.436c.016-.165-.01-.334-.058-.49l.015.048c.565,1.853,1.07,3.762,1.454,5.655,6.878,32.485-6.465,61.375-34.504,78.712-26.655,16.305-60.805,23.298-91.746,19.478h0l-.003-.006Z" fill="#000072"/>
    <path d="M210.05,210.944c8.924-4.39,16.976-8.951,20.219-11.383,5.882-4.411,8.964-10.182,9.435-20.658,1.008-22.469-11.88-36.745-31.669-38.49-18.271-1.612-39.834,7.053-52.126,29.119-8.609,15.453-10.344,46.564,13.068,51.807,15.454,3.461,35.714-7.756,41.075-10.394h-.001Z" fill="#5f5f82"/>
    <path d="M190.682,110.39c1.753-6.607,15.275-28.56,27.893-18.938,4.449,3.392,3.499,12.813-2.737,14.391-9.09,2.301-11.028,1.11-25.156,4.546h0Z" fill="#000072"/>
    <path d="M342.114,110.467c-1.747-6.608-15.246-28.576-27.874-18.966-4.452,3.388-3.512,12.808,2.722,14.394,9.088,2.311,11.026,1.122,25.152,4.573Z" fill="#000072"/>
    <g>
      <path d="M187.524,50.062c31.235-18.66,64.047-16.466,66.667-45.993,0,0,13.98,8.374,12.25,21.471,3.722-3.23,8.562-9.091,27.964-7.313,17.126,1.569,25.608-5.136,25.608-5.136,0,0,1.974,21.069-21.851,27.037" fill="#fff"/>
      <path d="M185.961,47.445c12.375-7.477,26.313-12.01,39.598-17.104,13.071-5.037,24.579-11.472,25.6-26.583.146-1.661,1.61-2.891,3.271-2.747,1.128.086,2.053.944,2.894,1.495,1.44,1.051,2.801,2.187,4.074,3.437,3.485,3.391,6.341,7.552,7.589,12.375.675,2.465.715,5.078.476,7.616l-5.02-2.7c8.752-8.961,20.429-8.926,31.987-7.934,7.233.411,14.917-.501,21.207-4.277.185-.115.437-.291.485-.326l.117-.085c1.824-1.411,4.672-.089,4.807,2.192,2.004,14.787-10.586,26.973-24.885,27.321,2.901-1.406,5.632-2.957,8.017-4.814,7.109-5.141,10.14-13.48,10.799-21.939l4.924,2.107c-7.493,5.141-16.96,6.385-25.832,5.907-5.517-.412-11.57-.826-16.779.367-4.489.941-7.414,2.82-10.851,6.085-1.948,1.835-5.3.159-5.037-2.471.459-3.739-.479-7.392-2.556-10.588-2.075-3.174-5.023-6.028-8.22-8.099l4.602-2.345c-1.389,17.816-14.198,25.864-29.433,31.674-13.248,5.097-26.612,9.383-38.707,16.667-3.434,1.967-6.591-3.019-3.126-5.233h-.001Z" fill="#000072"/>
    </g>
    <g>
      <path d="M256.6,34.026c5.523-2.789,7.36-5.294,9.84-8.488" fill="#fff"/>
      <path d="M256.6,34.026c3.596-2.849,5.684-6.149,7.433-10.357l4.814,3.739c-3.365,3.022-7.739,5.716-12.247,6.618h0Z" fill="#232333"/>
    </g>
    <path d="M172.43,174.751c3.392,6.129,8.223,10.968,14.187,14.022,10.18,5.196,25.057,4.159,32.475-4.924,4.138-5.117,5.492-11.962,6.309-18.755,3.872,7.07,4.548,15.6.947,23.131-5.722,12.068-21.034,16.445-33.28,13.104-11.68-2.938-21.663-14.344-20.639-26.58h0Z" fill="#000072"/>
    <path d="M322.828,210.944c-8.924-4.39-16.976-8.951-20.219-11.383-5.882-4.411-8.964-10.182-9.435-20.658-1.007-22.469,11.88-36.745,31.669-38.49,18.271-1.612,39.834,7.053,52.126,29.119,8.609,15.453,10.344,46.564-13.068,51.807-15.454,3.461-35.714-7.756-41.075-10.394h.001Z" fill="#5f5f82"/>
    <path d="M360.449,174.751c1.021,12.237-8.957,23.639-20.639,26.58-12.243,3.343-27.562-1.037-33.28-13.104-3.601-7.53-2.924-16.062.947-23.131.815,6.789,2.171,13.64,6.309,18.755,7.42,9.084,22.293,10.121,32.475,4.924,5.966-3.056,10.793-7.89,14.187-14.022h0Z" fill="#000072"/>
    <path d="M275.624,220.524c-3.628-.688-6.395-1.38-9.656-1.381-3.264.047-6.011.758-9.643,1.47.79-4.519,5.103-7.503,9.614-7.565,4.511.031,8.843,2.973,9.684,7.475h.002Z" fill="#000072"/>
    <path d="M280.99,188.338c-1.721,4.81-6.965,8.309-10.662,10.26-2.438,1.285-5.346,1.284-7.783-.003-3.697-1.953-8.937-5.456-10.655-10.268-1.963-5.515,11.916-6.408,14.552-6.407,2.636,0,16.514.906,14.547,6.419h0Z" fill="#000072"/>
    <g opacity=".5">
      <path d="M272.474,184.733c-1.142,1.945-6.033,1.907-6.033,1.907,0,0-4.89.034-6.031-1.913-.815-1.393,4.94-1.617,6.033-1.617s6.847.23,6.031,1.622h0Z" fill="#fff"/>
    </g>
    <path d="M248.205,451.9c-19.073-1.547-48.035-7.134-60.53-26.271-6.352-9.722-9.907-18.92-11.374-27.809,6.135-1.354,11.793-.968,16.243,2.248,5.61,4.062,35.685,32.671,55.66,51.832h.001Z" fill="#424272"/>
    <path d="M284.45,451.9c19.072-1.547,48.035-7.134,60.53-26.271,6.352-9.722,9.907-18.92,11.374-27.809-6.135-1.354-11.793-.968-16.243,2.248-5.61,4.062-35.685,32.671-55.66,51.832h-.001Z" fill="#424272"/>
    <g>
      <g>
        <g>
          <path d="M237.785,471.037c0,1.08.057,2.12.169,3.12,2.693,25.319,38.031,27.439,50.662,27.439,18.128,0,86.002-6.199,105.549-52.848,5.409-12.913,4.667-26.02-.137-36.402v-.009c-3.385-7.319-8.787-13.285-15.476-16.871-10.535-5.676-24.263-5.466-38.353,4.603l3.757,2.556c-.299.121-.596.249-.887.37-31.05,13.18-36.459,26.456-62.511,36.37-26.561-2.41-39.111,3.918-42.069,22.006,0,.009,0,.025-.009.032-.468,2.903-.694,6.11-.694,9.633h0Z" fill="#5f5f82"/>
          <g opacity=".7">
            <path d="M238.488,461.371c9.471-24.715,41.74-14.244,41.74-14.244,0,0,11.316-1.747,31.18-18.541,28.793-24.343,39.901-25.125,39.901-25.963s-4.131-1.065-8.239.37c-31.05,13.18-36.459,26.456-62.511,36.37-26.561-2.41-39.111,3.918-42.069,22.006h-.001Z" fill="#fff"/>
          </g>
          <g opacity=".2">
            <path d="M340.199,400.068l3.757,2.556c5.74-2.385,10.777-11.479,34.597-7.157-10.535-5.676-24.263-5.466-38.353,4.603h0Z" fill="#000072"/>
          </g>
          <g opacity=".2">
            <path d="M237.954,474.155c2.693,25.319,38.031,27.439,50.662,27.439,18.128,0,86.002-6.199,105.549-52.848,5.409-12.913,4.667-26.02-.137-36.402-.541,27.673-11.446,53.597-48.099,68.235-43.392,17.331-65.704-4.167-66.623-25.278-5.45,5.989,1.435,26.084-7.746,31.929-6.231,3.966-26.584,1.645-33.606-13.075h0Z" fill="#000072"/>
          </g>
        </g>
        <path d="M343.957,402.621c-9.269,5.479-18.134,11.112-26.534,17.741-6.085,4.689-12.123,9.633-18.66,13.754-5.346,3.382-11.099,6.193-17.006,8.409-.49.188-1.017.251-1.508.207-10.331-.801-21.486-1.664-30.301,3.981-7.938,5.333-9.135,15.9-9.101,24.814-.045,16.18,15.864,23.203,29.89,25.535,14.265,2.546,28.942,1.461,43.193-.927,27.684-4.83,57.475-15.806,72.925-40.695,3.608-5.931,6.292-12.467,7.249-19.344,2.007-13.369-2.973-28.28-14.184-36.219-11.896-8.736-27.081-6.529-39.722.189,5.351-5.203,12.317-9.183,20.18-10.407,26.291-3.965,44.268,23.355,40.545,47.366-1.571,11.731-7.385,22.589-15.061,31.442-17.988,20.234-44.943,29.391-70.906,33.823-21.4,3.36-48.121,4.705-67.186-7.242-6.884-4.374-12.097-12.104-12.818-20.349-.583-7.912.07-16.119,3.427-23.428,5.491-12.11,18.941-15.481,31.033-15.654,3.856-.108,7.67.063,11.45.385l-1.507.207c5.544-2.142,10.863-4.698,15.96-7.729,5.998-3.552,13.094-8.766,18.989-12.566,9.142-5.856,19.145-10.586,29.657-13.293h-.004Z" fill="#000072"/>
        <path d="M264.202,454.209c-7.157-.56-14.57-.449-21.487,1.543-.347.114-.857.261-1.132.404l-1.511-5.904c8.218-.713,16.425,1.317,24.13,3.959h0Z" fill="#363d56"/>
        <path d="M261.178,475.031c-4.081.29-8.281.383-12.365-.007-4.354-.453-8.877-1.142-12.826-3.251l3.636-4.893c.487.529,1.314,1.051,1.957,1.476,5.852,3.63,12.849,5.44,19.599,6.677h0Z" fill="#363d56"/>
        <path d="M283.289,479.266c-8.784-6.69-10.054-21.723-1.756-29.289-.342,2.736-.759,5.17-.963,7.587-.616,7.491.855,14.38,2.719,21.701h0Z" fill="#363d56"/>
      </g>
      <g>
        <g>
          <path d="M294.955,471.037c0,1.08-.057,2.12-.169,3.12-2.693,25.319-38.031,27.439-50.662,27.439-18.128,0-86.002-6.199-105.549-52.848-5.409-12.913-4.667-26.02.137-36.402v-.009c3.385-7.319,8.787-13.285,15.476-16.871,10.535-5.676,24.263-5.466,38.353,4.603l-3.757,2.556c.299.121.596.249.887.37,31.05,13.18,36.459,26.456,62.511,36.37,26.561-2.41,39.111,3.918,42.069,22.006,0,.009,0,.025.009.032.468,2.903.694,6.11.694,9.633h0Z" fill="#5f5f82"/>
          <g opacity=".7">
            <path d="M294.252,461.371c-9.471-24.715-41.74-14.244-41.74-14.244,0,0-11.316-1.747-31.18-18.541-28.793-24.343-39.901-25.125-39.901-25.963s4.131-1.065,8.239.37c31.05,13.18,36.459,26.456,62.511,36.37,26.561-2.41,39.111,3.918,42.069,22.006h.001Z" fill="#fff"/>
          </g>
          <g opacity=".2">
            <path d="M192.541,400.068l-3.757,2.556c-5.74-2.385-10.777-11.479-34.597-7.157,10.535-5.676,24.263-5.466,38.353,4.603h0Z" fill="#000072"/>
          </g>
          <g opacity=".2">
            <path d="M294.786,474.155c-2.693,25.319-38.031,27.439-50.662,27.439-18.128,0-86.002-6.199-105.549-52.848-5.409-12.913-4.667-26.02.137-36.402.541,27.673,11.446,53.597,48.099,68.235,43.392,17.331,65.704-4.167,66.623-25.278,5.45,5.989-1.435,26.084,7.746,31.929,6.231,3.966,26.584,1.645,33.606-13.075h0Z" fill="#000072"/>
          </g>
        </g>
        <path d="M188.783,402.621c10.512,2.709,20.515,7.437,29.656,13.293,5.903,3.809,12.983,9.014,18.989,12.566,5.097,3.031,10.416,5.587,15.96,7.729l-1.507-.207c3.778-.322,7.593-.493,11.45-.385,12.103.181,25.531,3.532,31.033,15.654,3.36,7.309,4.007,15.516,3.427,23.428-.727,8.242-5.929,15.976-12.818,20.349-19.054,11.947-45.794,10.602-67.184,7.243-25.962-4.43-52.919-13.589-70.906-33.823-7.678-8.854-13.49-19.711-15.062-31.442-3.717-24.002,14.238-51.331,40.545-47.366,7.863,1.224,14.829,5.203,20.18,10.405-12.633-6.716-27.839-8.926-39.723-.188-11.21,7.94-16.19,22.848-14.184,36.219.959,6.876,3.641,13.413,7.249,19.342,15.453,24.891,45.238,35.862,72.924,40.695,14.249,2.388,28.927,3.472,43.193.927,14.015-2.331,29.944-9.355,29.889-25.535.036-8.91-1.163-19.482-9.101-24.814-8.819-5.646-19.969-4.782-30.301-3.982-.53.048-1.04-.026-1.508-.207-5.907-2.218-11.66-5.029-17.006-8.409-6.535-4.118-12.578-9.068-18.66-13.754-8.402-6.629-17.266-12.263-26.534-17.741h0v.002Z" fill="#000072"/>
        <path d="M268.538,454.209c7.705-2.643,15.912-4.672,24.13-3.959l-1.511,5.904c-.28-.144-.785-.29-1.132-.404-6.916-1.992-14.331-2.103-21.487-1.543h0Z" fill="#000072"/>
        <path d="M271.562,475.031c6.752-1.237,13.745-3.047,19.599-6.677.643-.424,1.475-.95,1.958-1.476l3.636,4.893c-3.949,2.108-8.472,2.799-12.826,3.252-4.081.392-8.29.297-12.365.007h-.001Z" fill="#000072"/>
        <path d="M249.451,479.266c1.864-7.318,3.334-14.211,2.719-21.701-.204-2.417-.621-4.852-.963-7.587,8.298,7.565,7.028,22.599-1.756,29.289h0Z" fill="#000072"/>
      </g>
    </g>
  </g>
  <g>
    <path d="M96.497,142.406c3.138-7.969,3.792-16.989,1.278-25.866-6.099-21.545-28.509-34.066-50.054-27.967-21.545,6.099-34.066,28.509-27.967,50.054,6.099,21.545,28.509,34.066,50.054,27.967,5.994-1.696,11.284-4.657,15.674-8.509l19.208.904-8.193-16.584v.002Z" fill="#fff"/>
    <g opacity=".5">
      <path d="M49.846,96.078c20.127-5.697,41.002,4.855,48.638,23.832-.241-1.41-.551-2.819-.949-4.225-6.099-21.545-28.509-34.066-50.054-27.967-21.545,6.099-34.066,28.509-27.967,50.054.4,1.412.874,2.783,1.41,4.115-3.456-20.17,8.791-40.111,28.924-45.81h-.002Z" fill="#fff"/>
    </g>
    <path d="M58.784,171.699c-19.238,0-36.967-12.697-42.459-32.101-6.624-23.402,7.024-47.831,30.427-54.457,11.335-3.209,23.243-1.81,33.53,3.934,10.285,5.746,17.716,15.155,20.927,26.49,2.505,8.847,2.215,18.024-.831,26.641l7.511,15.203c.56,1.132.478,2.477-.213,3.534-.691,1.055-1.887,1.696-3.151,1.608l-17.804-.839c-4.687,3.85-10.042,6.644-15.939,8.314-3.999,1.132-8.032,1.67-11.998,1.672v.002ZM58.82,90.592c-3.381,0-6.783.469-10.128,1.414-19.619,5.555-31.059,26.032-25.507,45.651,5.555,19.619,26.032,31.064,45.651,25.507,5.339-1.511,10.149-4.123,14.294-7.758.693-.609,1.599-.943,2.52-.88l13.16.62-5.512-11.157c-.445-.902-.489-1.95-.121-2.886,2.985-7.582,3.387-15.738,1.166-23.587-2.69-9.504-8.921-17.391-17.542-22.208-5.589-3.123-11.751-4.713-17.981-4.713l-.002-.002Z" fill="#000072"/>
    <g opacity=".3">
      <path d="M96.655,141.984c-9.316,11.169-23.675,17.863-39.291,16.763-17.32-1.22-31.761-11.714-38.848-26.279.252,2.051.661,4.111,1.242,6.162,6.099,21.545,28.509,34.066,50.054,27.967,5.994-1.696,11.284-4.657,15.674-8.509l19.208.904-8.193-16.584c.056-.14.103-.282.157-.422h-.002Z" fill="#000072"/>
    </g>
    <path d="M71.841,116.179h0c-3.508-3.508-9.198-2.88-12.706.628l-.547.547-.547-.547c-3.508-3.508-9.198-4.136-12.706-.628h0c-3.508,3.508-3.508,9.198,0,12.706l.547.547,11.032,11.032c.925.925,2.425.925,3.349,0l11.032-11.032.547-.547c3.508-3.508,3.508-9.198,0-12.706Z" fill="#ff0068"/>
  </g>
</svg>